<?xml version="1.0" standalone="no"?>
<!DOCTYPE svg PUBLIC "-//W3C//DTD SVG 20010904//EN"
 "http://www.w3.org/TR/2001/REC-SVG-20010904/DTD/svg10.dtd">
<svg version="1.0" xmlns="http://www.w3.org/2000/svg"
 width="736.000000pt" height="736.000000pt" viewBox="0 0 736.000000 736.000000"
 preserveAspectRatio="xMidYMid meet">

<g transform="translate(0.000000,736.000000) scale(0.100000,-0.100000)"
fill="#000000" stroke="none">
<path d="M0 3680 l0 -3680 3680 0 3680 0 0 3680 0 3680 -3680 0 -3680 0 0
-3680z m5698 3214 c-4 -3 -12 5 -18 18 -12 22 -12 22 6 6 10 -10 15 -20 12
-24z m-1080 -15 c34 -30 35 -49 3 -49 -21 0 -44 23 -34 33 3 4 1 7 -5 7 -7 0
-12 9 -12 20 0 27 9 25 48 -11z m-91 -59 c14 -17 46 -41 70 -55 44 -26 55 -45
27 -45 -20 0 -124 81 -124 97 0 7 -7 13 -15 13 -8 0 -15 5 -15 10 0 20 31 9
57 -20z m467 -37 c10 -26 3 -23 -34 13 l-35 35 32 -16 c17 -8 34 -23 37 -32z
m-461 -67 c23 -23 25 -36 6 -36 -13 0 -39 31 -39 46 0 19 5 18 33 -10z m563
-3 c-7 -7 -26 7 -26 19 0 6 6 6 15 -2 9 -7 13 -15 11 -17z m-1062 -9 c9 -24 7
-28 -9 -14 -17 14 -20 30 -6 30 5 0 12 -7 15 -16z m521 -106 c3 -9 15 -20 26
-23 10 -4 19 -15 19 -25 0 -11 9 -24 21 -31 15 -8 18 -14 10 -22 -17 -17 -13
-37 9 -37 13 0 18 -5 14 -15 -4 -8 -1 -15 7 -15 7 0 9 -3 6 -6 -4 -4 -18 1
-31 10 -31 20 -36 20 -36 2 0 -8 8 -17 19 -21 10 -3 31 -17 45 -30 14 -13 26
-21 26 -18 0 4 13 -6 29 -21 19 -19 42 -29 70 -32 37 -3 41 -1 41 19 1 22 1
22 16 2 9 -12 12 -30 9 -44 -9 -34 52 -133 77 -125 14 4 20 -1 24 -25 4 -17
11 -31 16 -31 6 0 8 9 4 20 -3 11 -9 29 -12 40 -4 11 -2 20 4 20 6 0 16 -9 22
-20 6 -11 17 -20 25 -20 7 0 17 -5 20 -11 4 -6 0 -9 -10 -7 -26 4 -28 -15 -5
-41 21 -25 19 -41 -6 -41 -20 0 -17 -13 11 -44 29 -31 35 -32 35 -6 0 27 14
25 34 -5 20 -30 12 -48 -15 -40 -23 8 -59 -2 -59 -16 0 -6 10 -9 23 -7 18 2
23 -2 25 -24 2 -16 -1 -28 -7 -28 -6 0 -11 7 -11 15 0 9 -9 15 -22 15 -22 -1
-22 -2 7 -25 25 -21 31 -22 38 -10 7 13 11 13 29 1 28 -20 49 -10 42 20 -5 19
-3 23 10 18 8 -3 18 -15 22 -26 6 -21 -13 -78 -27 -78 -19 0 -8 -20 19 -33 43
-21 57 -16 54 18 -2 16 -7 32 -12 35 -5 3 -5 12 1 20 8 13 11 13 23 -2 18 -24
29 -23 16 1 -5 11 -10 30 -10 42 0 18 2 19 15 9 8 -7 15 -21 15 -33 0 -11 9
-28 21 -38 11 -10 18 -23 14 -29 -5 -8 -11 -8 -17 -2 -7 7 -16 6 -26 -5 -15
-14 -14 -17 6 -33 29 -24 29 -36 0 -16 -12 9 -26 16 -30 16 -13 0 3 -55 23
-75 18 -18 19 -18 13 -2 -6 17 -5 18 15 6 17 -12 18 -15 5 -19 -23 -8 -27
-104 -6 -152 11 -26 18 -34 24 -25 5 8 12 2 20 -20 7 -18 16 -33 21 -33 5 0 4
-6 -2 -14 -7 -9 -8 -17 -2 -20 5 -3 7 -15 4 -26 -4 -15 6 -31 37 -60 60 -55
74 -50 20 6 -47 49 -40 50 21 2 24 -18 37 -36 36 -51 0 -12 4 -31 8 -42 8 -20
8 -20 -13 -2 -11 11 -25 16 -31 13 -6 -4 -37 11 -70 33 -33 21 -57 33 -54 25
4 -10 0 -12 -11 -8 -10 4 -16 1 -16 -9 0 -8 -5 -17 -11 -19 -9 -3 -9 -10 0
-26 14 -27 31 -29 31 -3 0 11 4 22 9 25 5 4 7 -11 4 -34 -4 -27 0 -47 11 -65
10 -15 18 -51 20 -90 1 -35 9 -71 16 -80 10 -11 10 -19 2 -27 -8 -8 -7 -15 4
-25 7 -8 17 -12 21 -10 5 2 16 -4 26 -15 9 -10 14 -18 10 -18 -5 0 -17 -7 -27
-15 -18 -14 -17 -16 18 -75 20 -34 36 -72 36 -85 0 -29 50 -114 68 -115 14 0
17 -20 2 -20 -5 0 -25 16 -44 35 -20 19 -43 35 -53 35 -9 0 -27 10 -38 23 -11
12 -30 28 -43 35 -22 12 -22 12 -20 -55 3 -131 3 -131 -39 -131 -47 0 -66 10
-33 18 24 6 25 8 20 76 -3 38 -5 99 -5 137 1 48 -3 67 -12 67 -8 0 -13 13 -13
34 0 29 -4 34 -20 33 -22 -1 -26 -17 -9 -34 7 -7 9 -20 5 -30 -7 -16 -9 -16
-26 7 -18 23 -20 24 -20 4 0 -11 5 -25 12 -32 9 -9 7 -13 -8 -19 -10 -4 -25
-14 -32 -22 -10 -12 -15 -13 -18 -3 -3 6 -9 10 -14 7 -10 -6 -45 33 -37 41 4
4 13 1 22 -6 21 -17 19 -8 -4 18 -22 26 -31 28 -31 7 0 -11 -10 -14 -43 -11
-35 2 -43 0 -43 -15 0 -10 3 -16 7 -13 7 4 18 -87 12 -96 -8 -9 -23 25 -23 52
0 43 -15 40 -18 -3 -2 -25 3 -45 12 -55 16 -15 11 -44 -6 -44 -6 0 -7 7 -4 16
3 8 2 12 -4 9 -6 -3 -10 1 -10 10 0 9 -5 13 -10 10 -6 -4 -8 -15 -5 -26 7 -21
-5 -25 -23 -7 -8 8 -12 9 -12 1 0 -6 6 -18 13 -25 15 -15 20 -88 6 -88 -5 0
-9 16 -9 36 0 29 -9 46 -40 80 -22 24 -42 39 -45 34 -3 -4 0 -10 6 -12 6 -2
14 -26 16 -54 4 -39 1 -53 -12 -64 -15 -12 -18 -12 -26 3 -6 9 -15 17 -21 17
-6 0 -4 -10 5 -24 15 -23 13 -36 -5 -36 -5 0 -18 19 -29 43 l-20 42 4 -35 c3
-23 -1 -41 -11 -52 -14 -16 -14 -18 1 -18 10 0 17 -5 17 -12 0 -6 7 -20 17
-30 15 -16 15 -18 0 -18 -9 0 -21 9 -27 20 -6 11 -17 20 -24 20 -17 0 -29 27
-15 35 5 4 7 11 4 16 -10 15 -35 -17 -35 -45 0 -13 10 -37 23 -53 31 -39 51
-79 43 -91 -4 -6 6 -7 27 -2 54 13 97 31 97 41 0 5 7 9 15 9 8 0 15 4 15 10 0
5 8 6 17 3 14 -5 14 -8 2 -11 -26 -9 -27 -23 -3 -68 13 -24 20 -44 15 -44 -12
0 -41 46 -41 65 0 8 -5 15 -10 15 -23 0 -101 -44 -111 -63 -9 -16 -9 -19 3
-14 11 4 14 -1 10 -19 -6 -33 -22 -41 -29 -15 -3 12 -19 29 -36 37 -23 12 -27
18 -16 25 16 10 -1 12 -25 3 -14 -5 -13 -10 4 -34 15 -21 17 -31 8 -36 -6 -4
-14 -2 -16 4 -6 18 -30 14 -41 -6 -8 -16 -2 -23 40 -47 27 -16 49 -36 49 -43
0 -17 61 -73 72 -66 4 3 8 -2 8 -11 0 -12 -6 -15 -22 -9 -13 3 -27 13 -31 20
-4 8 -14 14 -21 14 -8 0 -16 9 -19 20 -3 13 -11 18 -20 14 -9 -3 -16 3 -20 16
-3 12 -10 19 -16 16 -6 -4 -17 7 -26 24 -14 28 -19 30 -58 27 -24 -2 -52 -9
-63 -16 -17 -10 -16 -11 9 -5 17 4 27 2 27 -5 0 -6 7 -11 15 -11 8 0 19 -9 25
-20 9 -17 8 -20 -11 -20 -27 0 -89 29 -89 42 0 6 -11 7 -25 4 -20 -5 -25 -3
-25 11 0 10 -3 29 -7 42 -4 17 -3 22 5 17 13 -8 15 9 3 37 -4 10 -11 17 -16
15 -12 -4 -22 42 -24 110 -1 65 13 66 47 3 19 -34 22 -44 12 -57 -7 -8 -10
-18 -6 -21 4 -4 11 -1 16 7 6 9 10 10 10 3 0 -6 3 -19 7 -29 4 -12 3 -15 -5
-10 -7 4 -12 2 -12 -3 0 -6 5 -11 10 -11 14 0 13 -43 -2 -58 -6 -6 -10 -14 -7
-16 8 -9 93 20 97 33 2 6 8 9 13 5 10 -6 12 7 3 30 -8 22 -24 20 -24 -3 0 -10
-7 -21 -15 -25 -11 -4 -15 2 -15 24 0 16 -5 52 -11 81 -9 42 -9 53 2 60 11 7
10 9 -3 9 -10 0 -18 6 -18 14 0 7 -11 38 -25 68 -24 52 -48 148 -39 157 2 2
30 -21 61 -51 65 -61 106 -89 97 -63 -4 8 -10 15 -14 15 -14 0 -97 136 -113
185 -23 72 -47 173 -47 196 0 71 75 -81 101 -205 10 -48 20 -90 23 -93 7 -8
26 68 26 106 0 49 -49 249 -73 296 -11 22 -27 49 -36 60 -18 22 -51 32 -51 15
0 -5 -5 -10 -11 -10 -14 0 -89 66 -83 73 2 2 -8 13 -22 23 -15 10 -40 31 -55
46 -16 15 -37 32 -47 37 -9 5 -28 29 -41 53 -77 140 -91 169 -91 192 0 20 -17
36 -97 89 -128 84 -362 197 -409 197 -17 0 -64 44 -64 60 0 5 -3 10 -8 10 -16
0 -33 41 -23 58 9 15 10 14 11 -7 0 -23 35 -71 51 -71 13 0 77 70 69 75 -5 3
-20 -9 -35 -27 l-27 -33 7 29 c3 17 19 46 35 66 24 30 34 35 70 36 l41 1 -21
-22 c-21 -22 -18 -35 7 -35 10 0 12 6 8 20 -4 11 -2 20 4 20 6 0 10 -5 8 -12
-1 -6 6 -14 16 -16 27 -6 32 26 8 58 -11 16 -21 33 -21 38 0 10 -45 32 -66 32
-9 0 -14 6 -11 13 2 6 11 11 21 9 21 -4 22 31 1 48 -21 17 -11 25 31 25 29 0
33 -3 28 -20 -4 -11 -11 -23 -17 -27 -6 -3 8 -11 31 -17 23 -7 44 -15 46 -20
5 -8 56 -13 56 -6 0 2 -13 17 -30 33 -16 17 -30 39 -30 49 1 15 4 14 24 -9 15
-16 27 -23 33 -17 6 6 16 2 28 -11 18 -20 18 -21 0 -34 -24 -17 -10 -38 21
-30 18 5 24 2 24 -10 0 -22 41 -37 59 -22 11 8 15 8 18 -1 8 -24 25 -13 21 12
-6 29 10 45 23 24 10 -16 12 -8 3 15 -3 9 -16 16 -29 16 -18 0 -22 -4 -18 -20
3 -11 1 -20 -5 -20 -6 0 -19 -3 -29 -7 -16 -6 -16 -5 -4 10 12 15 11 17 -3 17
-9 0 -16 6 -17 13 0 6 -3 25 -5 40 -3 19 -1 26 6 22 5 -3 10 -12 10 -19 0 -7
7 -21 16 -32 15 -18 15 -17 10 14 -4 23 -2 32 8 32 8 0 16 -8 18 -18 4 -15 31
-21 67 -13 2 1 -2 8 -9 16 -10 12 -9 15 4 15 10 0 14 5 11 10 -7 11 6 13 30 4
13 -5 14 -8 3 -15 -10 -6 -2 -18 30 -48 23 -22 42 -44 42 -50 0 -6 5 -11 10
-11 17 0 11 20 -15 47 -18 20 -21 30 -13 40 7 9 15 10 23 3 13 -11 35 6 35 28
0 10 8 12 30 7 31 -7 44 10 15 21 -8 4 -15 16 -14 28 0 18 1 18 7 4 4 -10 24
-27 45 -38 l37 -20 10 25 c13 33 -5 72 -42 91 -29 15 -41 51 -13 40 8 -3 15 0
15 7 0 7 6 1 13 -13 7 -13 21 -25 32 -26 42 -2 66 -16 60 -35 -4 -12 1 -21 14
-28 26 -15 31 -14 31 5 0 11 6 14 21 9 16 -5 19 -4 14 6 -6 9 -3 11 8 6 32
-12 19 36 -16 62 -38 28 -61 68 -45 77 5 3 15 1 21 -5 6 -6 18 -11 27 -11 20
0 77 -27 85 -41 4 -5 10 -9 15 -9 12 0 -5 64 -24 91 -23 34 -20 41 14 34 l31
-7 -21 36 c-11 20 -29 52 -40 71 -19 34 -19 37 -4 61 l17 25 28 -33 c16 -18
31 -41 34 -50z m150 52 c3 -5 1 -10 -4 -10 -6 0 -11 5 -11 10 0 6 2 10 4 10 3
0 8 -4 11 -10z m-710 -40 c22 -23 25 -30 12 -30 -9 0 -23 14 -32 30 -9 17 -14
30 -12 30 2 0 16 -13 32 -30z m-185 -20 c12 -16 17 -30 11 -30 -12 0 -51 40
-51 52 0 17 20 7 40 -22z m585 10 c3 -5 1 -10 -4 -10 -6 0 -11 5 -11 10 0 6 2
10 4 10 3 0 8 -4 11 -10z m545 -42 c0 -24 -35 1 -45 32 l-7 25 26 -24 c14 -14
26 -28 26 -33z m-490 32 c0 -5 -2 -10 -4 -10 -3 0 -8 5 -11 10 -3 6 -1 10 4
10 6 0 11 -4 11 -10z m605 -30 c3 -5 1 -10 -4 -10 -6 0 -11 5 -11 10 0 6 2 10
4 10 3 0 8 -4 11 -10z m-1061 -49 c-7 -7 -34 21 -34 36 0 10 6 8 19 -8 11 -13
18 -26 15 -28z m-335 5 c-3 -3 -11 5 -18 17 -13 21 -12 21 5 5 10 -10 16 -20
13 -22z m776 -1 c11 -7 17 -16 13 -20 -9 -10 -58 25 -58 42 0 10 3 11 13 3 6
-6 21 -17 32 -25z m-517 -25 c18 -7 31 -15 28 -17 -7 -7 -78 19 -98 36 -29 23
-21 34 10 13 15 -10 42 -24 60 -32z m147 40 c8 -13 -5 -13 -25 0 -13 8 -13 10
2 10 9 0 20 -4 23 -10z m1345 -32 c0 -6 -7 -5 -15 2 -8 7 -15 17 -15 22 0 6 7
5 15 -2 8 -7 15 -17 15 -22z m-700 -8 c-10 -6 -7 -11 9 -21 28 -18 27 -32 -1
-24 -46 14 -64 61 -25 67 25 3 36 -10 17 -22z m120 -21 c0 -10 -4 -19 -9 -19
-12 0 -23 29 -15 41 8 14 24 0 24 -22z m-564 -31 c8 -16 13 -32 10 -35 -5 -6
-46 56 -46 70 0 15 20 -4 36 -35z m224 1 c0 -13 -12 -11 -32 5 -29 21 -22 39
7 20 14 -9 25 -20 25 -25z m560 -2 c0 -5 -4 -5 -10 -2 -5 3 -10 14 -10 23 0
15 2 15 10 2 5 -8 10 -19 10 -23z m-1456 -8 c-8 -13 -24 -1 -24 18 0 13 3 13
15 3 8 -7 12 -16 9 -21z m196 -7 c13 -12 13 -13 -4 -10 -10 1 -23 14 -28 28
-8 21 -7 23 4 10 7 -8 20 -21 28 -28z m240 18 c13 -11 21 -23 18 -26 -3 -3
-18 6 -33 20 -33 30 -19 35 15 6z m-580 -35 c0 -8 -2 -15 -4 -15 -2 0 -6 7
-10 15 -3 8 -1 15 4 15 6 0 10 -7 10 -15z m520 -1 c0 -8 -5 -12 -10 -9 -6 4
-8 11 -5 16 9 14 15 11 15 -7z m1146 -36 c14 -28 15 -31 2 -20 -14 11 -31 52
-22 52 2 0 11 -15 20 -32z m-1641 12 c3 -5 1 -10 -4 -10 -6 0 -11 5 -11 10 0
6 2 10 4 10 3 0 8 -4 11 -10z m685 -41 c0 -16 -19 -9 -30 10 -17 33 -11 48 10
22 11 -13 20 -27 20 -32z m-292 -5 c-4 -3 -12 5 -18 18 -12 22 -12 22 6 6 10
-10 15 -20 12 -24z m1022 10 c0 -8 -4 -12 -10 -9 -5 3 -10 13 -10 21 0 8 5 12
10 9 6 -3 10 -13 10 -21z m-1380 6 c0 -5 -2 -10 -4 -10 -3 0 -8 5 -11 10 -3 6
-1 10 4 10 6 0 11 -4 11 -10z m1550 -22 c0 -5 -4 -8 -10 -8 -5 0 -10 10 -10
23 0 18 2 19 10 7 5 -8 10 -18 10 -22z m-1495 -18 c10 -11 15 -23 10 -28 -4
-4 -10 -1 -12 6 -3 7 -11 19 -20 27 -8 8 -10 15 -5 15 5 0 17 -9 27 -20z m131
-17 c-10 -10 -19 5 -10 18 6 11 8 11 12 0 2 -7 1 -15 -2 -18z m410 -13 c0 -24
-3 -25 -22 -6 -19 19 -18 26 4 26 11 0 18 -7 18 -20z m-18 -43 c2 -12 -1 -15
-12 -11 -19 7 -22 38 -3 32 6 -3 13 -12 15 -21z m1276 -32 c3 -8 1 -15 -4 -15
-6 0 -10 7 -10 15 0 8 2 15 4 15 2 0 6 -7 10 -15z m-244 -70 c20 -24 6 -28
-15 -5 -10 11 -13 20 -8 20 6 0 16 -7 23 -15z m163 -23 c18 -16 24 -52 7 -52
-5 0 -7 -7 -4 -15 4 -8 1 -15 -6 -15 -6 0 -10 8 -7 18 4 21 -19 72 -34 72 -6
0 -7 5 -4 10 7 11 19 6 48 -18z m301 -22 c-6 -5 -24 21 -24 34 0 6 6 1 14 -10
8 -10 12 -21 10 -24z m-2294 -8 c0 -7 -4 -10 -10 -7 -5 3 -10 16 -10 28 0 18
2 19 10 7 5 -8 10 -21 10 -28z m1844 -3 c11 -13 13 -19 4 -16 -7 2 -23 -5 -35
-16 -19 -17 -23 -18 -23 -5 0 9 -3 23 -6 31 -5 14 2 18 36 26 3 0 14 -9 24
-20z m116 0 c0 -5 -4 -9 -10 -9 -5 0 -10 7 -10 16 0 8 5 12 10 9 6 -3 10 -10
10 -16z m-31 -41 c1 -5 -3 -8 -8 -8 -11 0 -21 37 -13 45 6 5 20 -19 21 -37z
m131 28 c0 -3 -4 -8 -10 -11 -5 -3 -10 -1 -10 4 0 6 5 11 10 11 6 0 10 -2 10
-4z m56 -70 c16 -17 18 -26 4 -26 -5 0 -14 9 -20 20 -12 23 -5 26 16 6z
m-2039 -20 c15 -8 36 -24 45 -35 16 -19 15 -21 -27 -41 -31 -15 -54 -20 -75
-15 -36 8 -39 22 -7 35 12 5 16 9 9 9 -8 1 -27 -7 -42 -16 -24 -14 -33 -15
-56 -5 -69 32 -172 24 -369 -30 -22 -6 -53 -12 -69 -14 l-29 -4 27 21 c14 11
30 18 35 15 9 -6 111 40 121 55 8 11 88 30 165 39 97 12 237 5 272 -14z m2186
-60 c18 -22 40 -48 51 -57 28 -27 45 -66 34 -77 -7 -7 -4 -10 8 -9 11 1 18 -4
17 -10 -2 -7 2 -13 7 -13 6 0 10 -4 10 -10 0 -15 -31 0 -78 38 -37 29 -43 39
-40 64 3 16 -1 33 -9 39 -14 12 -17 5 -14 -36 1 -13 -4 -8 -13 13 -8 17 -19
32 -24 32 -10 0 -62 70 -62 83 0 15 20 6 45 -20 14 -15 25 -23 25 -17 0 7 -7
17 -15 24 -8 7 -15 20 -15 29 1 12 6 10 21 -9 11 -14 34 -43 52 -64z m-236 -4
c-26 -5 -47 5 -47 22 0 12 5 12 33 -2 25 -13 28 -17 14 -20z m86 -16 c4 -10 1
-13 -9 -9 -7 3 -14 9 -14 14 0 14 17 10 23 -5z m-18 -43 c14 -15 25 -31 25
-35 0 -15 -15 -8 -38 20 -15 17 -22 20 -18 10 3 -10 1 -18 -4 -18 -6 0 -10 11
-10 25 0 32 13 32 45 -2z m-3150 -78 c11 -9 2 -7 -20 6 -22 12 -44 26 -50 32
-16 15 48 -20 70 -38z m3235 30 c20 -24 6 -28 -15 -5 -10 11 -13 20 -8 20 6 0
16 -7 23 -15z m-276 -11 c4 -10 1 -14 -6 -12 -15 5 -23 28 -10 28 5 0 13 -7
16 -16z m386 -56 c0 -16 -19 -7 -34 14 -26 37 -19 57 9 23 13 -16 24 -33 25
-37z m405 52 c3 -5 2 -10 -4 -10 -5 0 -13 5 -16 10 -3 6 -2 10 4 10 5 0 13 -4
16 -10z m-639 -32 c4 -13 8 -33 9 -46 0 -13 7 -27 15 -32 13 -8 12 -10 -2 -10
-24 0 -47 39 -46 78 1 37 13 42 24 10z m49 1 c11 -17 -1 -21 -15 -4 -8 9 -8
15 -2 15 6 0 14 -5 17 -11z m650 -19 c3 -6 -1 -10 -9 -10 -8 0 -20 9 -26 21
-11 19 -10 20 9 10 11 -6 23 -16 26 -21z m-3665 -16 c52 -10 97 -21 100 -25 3
-3 12 -9 20 -13 8 -3 -14 -4 -50 -1 -68 5 -185 39 -196 57 -4 6 1 8 12 5 11
-3 62 -13 114 -23z m3314 -29 c15 -14 22 -25 15 -25 -15 0 -49 29 -49 42 0 12
5 10 34 -17z m-134 -61 c12 -31 13 -54 2 -54 -10 0 -41 68 -34 75 11 11 23 4
32 -21z m-171 -54 c0 -10 -2 -11 -6 -2 -8 20 -23 14 -23 -10 0 -21 0 -21 -14
-3 -8 11 -11 24 -8 30 4 5 5 21 4 35 -3 25 -3 25 22 -5 14 -16 25 -37 25 -45z
m95 55 c3 -8 1 -15 -4 -15 -6 0 -10 7 -10 15 0 8 2 15 4 15 2 0 6 -7 10 -15z
m146 -91 c0 -18 -5 -18 -24 2 -9 8 -16 25 -16 37 1 22 1 22 20 -2 11 -13 20
-29 20 -37z m483 25 c3 -12 10 -18 16 -15 6 4 8 13 4 21 -8 22 27 8 49 -19 15
-18 19 -19 28 -6 8 13 10 13 10 -2 0 -9 -4 -20 -10 -23 -16 -10 -12 -38 5 -31
10 4 15 -1 15 -14 0 -11 -7 -20 -15 -20 -19 0 -21 -86 -2 -93 7 -3 5 -6 -5 -6
-13 -1 -18 -9 -18 -30 0 -17 -4 -32 -9 -35 -14 -9 -32 20 -24 39 5 14 3 16 -8
10 -12 -8 -12 -6 0 8 14 17 5 23 -16 9 -8 -5 -8 -16 1 -44 14 -40 4 -75 -14
-48 -5 8 -7 22 -4 30 4 12 3 13 -7 3 -20 -20 -31 -15 -19 6 13 25 13 28 -4 34
-10 4 -13 1 -9 -9 7 -18 -21 -19 -36 0 -7 8 -20 12 -31 9 -14 -4 -22 2 -29 19
-5 13 -23 35 -40 49 -35 27 -40 39 -13 32 15 -4 19 2 20 28 0 18 8 36 16 41 9
5 16 17 16 27 0 13 9 17 36 18 20 1 44 8 52 17 22 22 39 20 45 -5z m-673 -37
c0 -15 -2 -15 -10 -2 -13 20 -13 33 0 25 6 -3 10 -14 10 -23z m238 -11 c3 -8
-1 -12 -9 -9 -7 2 -15 10 -17 17 -3 8 1 12 9 9 7 -2 15 -10 17 -17z m121 -49
c1 -13 -3 -20 -9 -17 -5 3 -10 23 -9 43 0 30 2 33 9 17 5 -11 9 -30 9 -43z
m-302 6 c-3 -8 -6 -5 -6 6 -1 11 2 17 5 13 3 -3 4 -12 1 -19z m-77 -27 c5 -17
5 -31 0 -31 -10 0 -20 26 -20 52 0 28 8 19 20 -21z m870 25 c0 -3 -4 -8 -10
-11 -5 -3 -10 -1 -10 4 0 6 5 11 10 11 6 0 10 -2 10 -4z m-604 -53 c-2 -2 -11
0 -20 3 -14 5 -15 9 -5 15 12 7 34 -10 25 -18z m597 2 c-5 -13 -23 -22 -23
-11 0 15 14 35 21 31 4 -3 6 -12 2 -20z m-43 -5 c-6 -11 -15 -18 -21 -14 -6 4
-6 11 2 20 17 21 31 17 19 -6z m-280 -40 c0 -5 -2 -10 -4 -10 -3 0 -8 5 -11
10 -3 6 -1 10 4 10 6 0 11 -4 11 -10z m-408 -42 c-6 -6 -9 0 -9 18 0 23 1 24
9 10 7 -12 7 -21 0 -28z m378 11 c0 -5 -4 -9 -10 -9 -5 0 -10 7 -10 16 0 8 5
12 10 9 6 -3 10 -10 10 -16z m40 -8 c0 -12 -20 -25 -27 -18 -7 7 6 27 18 27 5
0 9 -4 9 -9z m84 -64 c-9 -24 -27 -21 -19 3 4 12 1 29 -6 38 -7 10 -3 8 9 -4
15 -13 20 -26 16 -37z m-1864 -9 c28 -47 25 -53 -9 -16 -16 18 -27 36 -25 40
8 13 13 9 34 -24z m1770 17 c0 -8 -4 -15 -10 -15 -5 0 -10 7 -10 15 0 8 5 15
10 15 6 0 10 -7 10 -15z m-450 -11 c0 -8 -4 -12 -10 -9 -5 3 -10 10 -10 16 0
5 5 9 10 9 6 0 10 -7 10 -16z m495 -14 c3 -5 1 -10 -4 -10 -6 0 -11 5 -11 10
0 6 2 10 4 10 3 0 8 -4 11 -10z m-550 -70 c0 -3 4 -11 9 -18 4 -7 5 -16 2 -19
-10 -11 -24 10 -30 47 -6 31 -5 33 6 15 7 -11 13 -22 13 -25z m592 15 c-23
-22 -33 -18 -12 5 10 11 20 18 23 16 2 -3 -3 -12 -11 -21z m-680 -7 c-3 -8 -6
-5 -6 6 -1 11 2 17 5 13 3 -3 4 -12 1 -19z m712 -19 c-19 -12 -24 -2 -8 17 9
11 14 13 17 4 3 -7 -2 -16 -9 -21z m-570 -42 c0 -21 -1 -21 -9 -2 -12 28 -12
37 0 30 6 -3 10 -16 9 -28z m121 23 c0 -5 -5 -10 -11 -10 -5 0 -7 5 -4 10 3 6
8 10 11 10 2 0 4 -4 4 -10z m-247 -77 c2 -5 8 -25 11 -47 10 -53 -13 -44 -29
12 -11 35 -11 42 0 42 8 0 16 -3 18 -7z m12 -113 c3 -5 1 -10 -4 -10 -6 0 -11
5 -11 10 0 6 2 10 4 10 3 0 8 -4 11 -10z m109 -116 c3 -8 2 -12 -4 -9 -6 3
-10 10 -10 16 0 14 7 11 14 -7z m84 -89 c-6 -6 -48 33 -48 45 0 5 12 -2 27
-16 14 -13 24 -26 21 -29z m-563 25 c3 -5 1 -10 -4 -10 -6 0 -11 5 -11 10 0 6
2 10 4 10 3 0 8 -4 11 -10z m140 -68 c-8 -9 -35 20 -28 31 4 6 11 3 19 -8 8
-10 12 -21 9 -23z m-55 -11 c0 -6 -4 -13 -10 -16 -5 -3 -10 1 -10 9 0 9 5 16
10 16 6 0 10 -4 10 -9z m110 5 c0 -11 -19 -15 -25 -6 -3 5 1 10 9 10 9 0 16
-2 16 -4z m-187 -51 c3 -20 1 -25 -11 -23 -18 4 -24 48 -6 48 6 0 14 -11 17
-25z m43 -2 c7 -10 14 -24 14 -32 0 -11 -3 -11 -16 -1 -8 8 -20 22 -25 32 -13
24 9 25 27 1z m134 -3 c0 -5 -2 -10 -4 -10 -3 0 -8 5 -11 10 -3 6 -1 10 4 10
6 0 11 -4 11 -10z m-334 -57 c-10 -10 -19 5 -10 18 6 11 8 11 12 0 2 -7 1 -15
-2 -18z m120 -20 c-10 -10 -19 5 -10 18 6 11 8 11 12 0 2 -7 1 -15 -2 -18z
m-121 -21 c-3 -3 0 -11 7 -19 8 -10 8 -17 0 -25 -14 -14 -19 -10 -27 23 -5 19
-3 26 9 26 9 0 14 -3 11 -5z m105 -22 c0 -5 -4 -10 -10 -10 -5 0 -10 5 -10 10
0 6 5 10 10 10 6 0 10 -4 10 -10z m-145 -20 c3 -5 -1 -10 -9 -10 -9 0 -16 5
-16 10 0 6 4 10 9 10 6 0 13 -4 16 -10z m300 -29 c-9 -16 -25 -3 -18 15 4 10
9 12 15 6 6 -6 7 -15 3 -21z m-357 7 c-6 -18 -28 -21 -28 -4 0 9 7 16 16 16 9
0 14 -5 12 -12z m140 -6 c6 -18 -15 -14 -22 4 -4 10 -1 14 6 12 6 -2 14 -10
16 -16z m52 -12 c0 -5 -7 -7 -15 -4 -8 4 -15 8 -15 10 0 2 7 4 15 4 8 0 15 -4
15 -10z m30 -35 c-7 -8 -17 -15 -22 -15 -6 0 -5 7 2 15 7 8 17 15 22 15 6 0 5
-7 -2 -15z m-193 -21 c2 -5 -6 -10 -16 -11 -14 -1 -18 3 -14 13 6 16 25 14 30
-2z m521 -46 c0 -18 1 -37 2 -43 7 -33 -1 -65 -17 -65 -15 0 -16 2 -3 10 13 9
13 11 0 20 -9 6 -10 10 -3 10 8 0 7 10 -4 32 -12 23 -13 33 -5 36 7 2 12 13
12 23 0 11 4 18 9 15 5 -3 9 -21 9 -38z m262 12 c0 -5 -2 -10 -4 -10 -3 0 -8
5 -11 10 -3 6 -1 10 4 10 6 0 11 -4 11 -10z m-370 -30 c0 -5 -9 -10 -20 -10
-11 0 -20 5 -20 10 0 6 9 10 20 10 11 0 20 -4 20 -10z m-940 -62 c8 -29 8 -44
1 -51 -8 -8 -11 -5 -11 10 0 12 -5 25 -12 29 -8 5 -9 -5 -5 -34 4 -32 2 -42
-9 -42 -10 0 -8 -7 7 -24 12 -14 28 -22 35 -19 12 4 11 8 -3 19 -15 10 -16 15
-5 26 19 19 32 -7 31 -62 0 -27 -3 -38 -7 -28 -5 12 -12 14 -21 9 -7 -5 -10
-14 -7 -20 4 -6 0 -11 -8 -11 -9 0 -16 5 -16 10 0 6 -7 10 -15 10 -12 0 -15
13 -15 60 0 33 7 77 15 97 8 19 15 44 15 55 0 31 19 11 30 -34z m1110 -7 c0
-5 -7 -11 -15 -15 -15 -5 -20 5 -8 17 9 10 23 9 23 -2z m-575 -87 c7 -39 -1
-57 -15 -34 -12 19 -13 70 -1 70 5 0 12 -16 16 -36z m102 14 c-3 -8 -6 -5 -6
6 -1 11 2 17 5 13 3 -3 4 -12 1 -19z m-553 -50 c-10 -16 -22 -7 -17 13 4 15 8
17 14 8 4 -7 5 -17 3 -21z m501 -9 c9 -17 14 -40 12 -52 -4 -19 -4 -19 -6 4 0
14 -8 34 -16 45 -14 19 -19 34 -10 34 2 0 12 -14 20 -31z m-702 -54 c-3 -8 -9
-15 -14 -15 -10 0 -12 24 -3 33 11 11 24 -3 17 -18z m190 -64 c-2 -3 -11 3
-20 12 -13 13 -14 20 -5 29 7 7 13 21 13 33 1 11 5 0 9 -25 4 -25 6 -47 3 -49z
m87 73 c0 -8 -4 -12 -10 -9 -5 3 -10 10 -10 16 0 5 5 9 10 9 6 0 10 -7 10 -16z
m35 6 c3 -5 1 -10 -4 -10 -6 0 -11 5 -11 10 0 6 2 10 4 10 3 0 8 -4 11 -10z
m79 -5 c3 -8 15 -14 28 -12 15 1 23 -4 24 -13 0 -8 5 -24 9 -34 6 -13 4 -21
-3 -24 -7 -2 -12 -11 -12 -19 0 -11 -7 -7 -21 11 -11 14 -17 30 -14 36 3 6 -3
24 -15 40 -12 17 -17 30 -12 30 6 0 12 -7 16 -15z m-34 -51 c0 -8 -5 -12 -10
-9 -6 4 -8 11 -5 16 9 14 15 11 15 -7z m-361 -16 c0 -13 -3 -17 -6 -10 -2 6
-11 12 -19 12 -9 0 -12 5 -9 10 12 19 35 10 34 -12z m519 -15 c2 -32 0 -35 -9
-20 -6 10 -8 21 -5 24 3 4 1 12 -5 20 -9 10 -8 13 3 13 9 0 15 -13 16 -37z
m-128 7 c0 -5 -4 -10 -10 -10 -5 0 -10 5 -10 10 0 6 5 10 10 10 6 0 10 -4 10
-10z m-240 -50 c0 -5 -4 -10 -10 -10 -5 0 -10 5 -10 10 0 6 5 10 10 10 6 0 10
-4 10 -10z m800 -16 c0 -8 -5 -12 -10 -9 -6 4 -8 11 -5 16 9 14 15 11 15 -7z
m-1005 -34 c3 -5 -1 -10 -10 -10 -9 0 -13 5 -10 10 3 6 8 10 10 10 2 0 7 -4
10 -10z m-68 -26 c-3 -3 -12 -4 -19 -1 -8 3 -5 6 6 6 11 1 17 -2 13 -5z m578
-204 c3 -5 1 -10 -4 -10 -6 0 -11 5 -11 10 0 6 2 10 4 10 3 0 8 -4 11 -10z
m-789 -25 c-2 -7 1 -21 8 -31 7 -11 16 -40 20 -66 7 -46 26 -77 26 -42 0 27
15 6 15 -22 1 -19 -3 -23 -17 -18 -13 4 -18 0 -18 -15 0 -11 5 -23 10 -26 15
-9 1 -27 -16 -21 -8 3 -14 1 -14 -4 0 -5 7 -10 16 -12 13 -3 13 -5 -1 -23 -11
-14 -18 -16 -21 -8 -8 18 -57 -34 -50 -52 9 -24 -19 -18 -53 11 -17 14 -31 21
-31 15 0 -5 5 -13 10 -16 16 -10 11 -28 -6 -21 -10 4 -13 2 -8 -7 4 -6 -2 -4
-13 6 -12 10 -23 15 -26 10 -16 -25 -25 -94 -18 -135 4 -27 6 -50 4 -52 -2 -2
-26 17 -53 43 l-49 46 26 27 c23 24 23 26 5 22 -30 -8 -37 15 -12 41 13 13 24
35 25 49 3 23 42 86 55 86 3 0 13 -9 23 -20 9 -11 25 -20 34 -20 13 0 8 7 -14
23 -39 26 -40 38 -11 112 22 60 43 58 26 -2 -11 -41 -7 -99 7 -96 6 0 13 21
18 45 20 116 62 203 93 191 8 -3 13 -11 10 -18z m699 5 c-3 -5 -2 -10 4 -10 5
0 11 5 13 11 6 18 48 -12 48 -33 0 -10 5 -18 11 -18 6 0 9 -9 6 -19 -3 -14 -1
-18 9 -14 8 3 14 0 14 -6 0 -6 -5 -11 -11 -11 -8 0 -10 -12 -6 -34 5 -31 3
-35 -21 -41 -20 -5 -31 -1 -43 13 -9 11 -27 22 -40 24 -36 5 -62 34 -62 68 0
36 28 71 51 63 10 -4 13 -2 8 5 -4 7 -1 12 9 12 9 0 13 -4 10 -10z m-632 -105
c-7 -21 -13 -19 -13 6 0 11 4 18 10 14 5 -3 7 -12 3 -20z m767 -45 c0 -5 -2
-10 -4 -10 -3 0 -8 5 -11 10 -3 6 -1 10 4 10 6 0 11 -4 11 -10z m-110 -34 c0
-3 -4 -8 -10 -11 -5 -3 -10 -1 -10 4 0 6 5 11 10 11 6 0 10 -2 10 -4z m46 -11
c-8 -8 -18 -15 -22 -15 -3 0 -1 7 6 15 7 8 17 15 22 15 5 0 3 -7 -6 -15z
m-1024 -94 c-2 -17 -10 -35 -18 -42 -11 -9 -16 -5 -26 16 -11 24 -10 29 11 46
29 24 39 18 33 -20z m-2209 -110 c93 -16 178 -26 189 -23 16 4 19 2 13 -8 -6
-10 0 -12 23 -8 19 3 29 0 25 -5 -4 -6 3 -8 18 -4 13 3 61 -3 108 -14 74 -19
91 -20 141 -9 31 7 65 10 76 7 12 -3 9 -5 -11 -6 -18 -1 -43 -12 -62 -30 -29
-26 -40 -29 -135 -36 -95 -6 -118 -4 -303 33 -375 74 -529 91 -625 69 -36 -9
-66 -14 -67 -13 -9 8 119 72 156 78 80 12 280 -1 454 -31z m2412 -19 c2 -7
-11 -1 -30 14 -19 14 -35 28 -35 30 0 8 60 -32 65 -44z m-1655 -32 c-8 -5 -10
-10 -5 -10 20 -1 -44 -30 -89 -40 -75 -17 -75 1 0 31 69 28 126 39 94 19z
m-1383 -6 c-3 -3 -12 -4 -19 -1 -8 3 -5 6 6 6 11 1 17 -2 13 -5z m3043 -34 c0
-24 -40 -87 -69 -107 -43 -33 -48 -28 -12 12 17 20 38 51 46 70 13 33 35 48
35 25z m282 -170 c19 -41 11 -53 -32 -52 -41 1 -60 18 -60 52 0 35 8 42 45 38
23 -2 34 -11 47 -38z m124 -386 c54 -25 149 -70 211 -99 61 -30 127 -57 147
-60 20 -4 36 -11 36 -16 0 -5 11 -7 24 -3 14 3 40 -3 67 -15 23 -12 49 -21 56
-21 7 0 13 -4 13 -10 0 -5 13 -16 29 -24 24 -13 30 -24 38 -78 6 -35 9 -65 7
-67 -2 -2 -10 4 -19 13 -9 9 -19 16 -23 16 -4 0 -22 13 -41 29 -40 34 -40 34
-181 93 -14 5 -38 16 -55 23 -16 8 -46 17 -65 20 -19 4 -87 29 -150 55 -63 27
-127 52 -143 55 -23 6 -48 33 -52 55 -3 16 -47 100 -55 105 -5 3 -10 11 -10
16 0 6 15 -1 33 -15 19 -14 78 -47 133 -72z m1188 -27 c9 -52 -2 -77 -34 -77
-22 0 -30 19 -30 69 0 76 50 82 64 8z m2 -148 c1 -37 -2 -52 -15 -59 -26 -14
-36 1 -39 57 -3 47 -1 52 20 55 31 5 33 3 34 -53z m-5272 -55 c24 -9 19 -30
-15 -59 -37 -30 -63 -29 -67 2 -2 16 6 28 30 43 38 23 32 22 52 14z m5167
-310 c10 -12 10 -20 1 -34 -6 -11 -9 -26 -6 -35 9 -24 -2 -18 -21 11 -14 21
-14 28 -4 34 10 7 10 11 0 24 -11 13 -11 16 2 16 8 0 20 -7 28 -16z m157 -12
c13 -17 15 -53 6 -89 -8 -30 -51 -31 -88 -2 -54 42 -21 127 43 113 14 -4 32
-13 39 -22z m582 -282 c0 -5 -12 -10 -27 -9 -25 0 -26 1 -8 9 27 12 35 12 35
0z m-3184 -53 l1 -42 -13 30 c-7 18 -8 31 -3 33 6 2 5 10 -2 18 -9 11 -9 13 2
9 9 -3 15 -21 15 -48z m-56 16 c2 -2 -12 -3 -33 -1 -20 1 -37 6 -37 10 0 7 60
0 70 -9z m18 -49 c19 -6 22 -11 17 -33 -4 -20 -3 -22 5 -11 8 13 10 13 10 -2
0 -19 -34 -32 -70 -26 -27 4 -66 51 -56 67 8 12 57 14 94 5z m3617 -143 c8
-15 -35 -35 -47 -23 -6 6 -7 15 -4 21 9 14 43 14 51 2z m790 -84 c0 -26 -20
-25 -23 2 -3 16 1 22 10 19 7 -3 13 -12 13 -21z m-4594 -152 c-1 -15 -24 -12
-29 3 -3 9 2 13 12 10 10 -1 17 -7 17 -13z m3338 -261 c9 -8 -45 -2 -64 6 -14
7 -8 8 20 3 22 -3 42 -7 44 -9z m-254 -34 c13 -5 14 -9 5 -9 -8 0 -24 4 -35 9
-13 5 -14 9 -5 9 8 0 24 -4 35 -9z m52 -16 c-3 -3 -12 -4 -19 -1 -8 3 -5 6 6
6 11 1 17 -2 13 -5z m-287 -86 c44 -30 49 -48 15 -48 -39 0 -85 27 -85 50 0
27 29 26 70 -2z"/>
<path d="M4545 6479 c-4 -6 -5 -12 -2 -15 2 -3 7 2 10 11 7 17 1 20 -8 4z"/>
<path d="M4600 6376 c0 -2 16 -16 36 -31 26 -20 39 -24 47 -16 8 8 7 11 -4 11
-9 0 -24 9 -34 20 -16 17 -45 28 -45 16z"/>
<path d="M4290 6305 c7 -9 15 -13 17 -11 7 7 -7 26 -19 26 -6 0 -6 -6 2 -15z"/>
<path d="M4825 6289 c-4 -6 -13 -8 -19 -6 -7 3 -19 1 -27 -4 -11 -7 -12 -11
-1 -17 22 -15 62 -2 62 19 0 21 -6 24 -15 8z"/>
<path d="M4760 6210 c0 -5 5 -10 11 -10 5 0 7 5 4 10 -3 6 -8 10 -11 10 -2 0
-4 -4 -4 -10z"/>
<path d="M4240 6170 c0 -5 5 -10 11 -10 5 0 7 5 4 10 -3 6 -8 10 -11 10 -2 0
-4 -4 -4 -10z"/>
<path d="M4810 6171 c0 -5 9 -11 20 -14 11 -3 20 -12 20 -21 0 -9 5 -16 10
-16 16 0 12 18 -10 40 -21 21 -40 26 -40 11z"/>
<path d="M3995 6150 c-3 -5 -1 -10 5 -10 7 0 25 -9 41 -21 31 -22 37 -16 14
15 -8 11 -18 17 -21 13 -4 -4 -13 -2 -20 4 -8 7 -14 7 -19 -1z"/>
<path d="M4920 6136 c0 -25 30 -66 48 -66 13 0 13 2 -1 18 -10 10 -17 23 -17
29 0 6 -7 16 -15 23 -12 10 -15 9 -15 -4z"/>
<path d="M4161 6104 c0 -11 3 -14 6 -6 3 7 2 16 -1 19 -3 4 -6 -2 -5 -13z"/>
<path d="M3795 6080 c3 -5 8 -10 11 -10 2 0 4 5 4 10 0 6 -5 10 -11 10 -5 0
-7 -4 -4 -10z"/>
<path d="M4841 6074 c0 -11 3 -14 6 -6 3 7 2 16 -1 19 -3 4 -6 -2 -5 -13z"/>
<path d="M3965 6060 c-4 -6 5 -10 19 -10 14 0 26 5 26 10 0 6 -9 10 -19 10
-11 0 -23 -4 -26 -10z"/>
<path d="M4070 6060 c0 -5 4 -10 9 -10 6 0 13 5 16 10 3 6 -1 10 -9 10 -9 0
-16 -4 -16 -10z"/>
<path d="M4950 6038 c0 -4 7 -8 16 -8 11 0 15 -6 11 -20 -4 -16 0 -20 21 -20
25 1 25 2 10 14 -10 7 -18 20 -18 29 0 10 -8 15 -20 14 -11 -1 -20 -5 -20 -9z"/>
<path d="M3580 6010 c-14 -11 -20 -20 -14 -20 6 0 19 9 29 20 23 25 17 25 -15
0z"/>
<path d="M3787 5973 c-16 -15 -6 -43 17 -49 13 -3 26 -14 29 -24 2 -10 15 -23
28 -29 l24 -12 -22 17 c-13 9 -23 26 -23 38 0 24 -42 71 -53 59z"/>
<path d="M3595 5951 c-22 -10 -47 -26 -55 -36 -14 -17 -13 -18 10 -11 47 14
110 19 110 9 0 -6 27 -13 60 -17 33 -4 62 -11 65 -16 4 -6 12 -10 18 -10 7 0
4 6 -5 14 -10 7 -16 15 -13 18 3 2 -5 4 -17 4 -13 -1 -27 10 -38 29 -13 25
-24 30 -56 32 -21 1 -57 -6 -79 -16z"/>
<path d="M4980 5930 c0 -5 5 -10 11 -10 5 0 7 5 4 10 -3 6 -8 10 -11 10 -2 0
-4 -4 -4 -10z"/>
<path d="M4218 5673 c6 -2 18 -2 25 0 6 3 1 5 -13 5 -14 0 -19 -2 -12 -5z"/>
<path d="M5230 5670 c0 -5 5 -10 10 -10 6 0 10 5 10 10 0 6 -4 10 -10 10 -5 0
-10 -4 -10 -10z"/>
<path d="M5205 5660 c-4 -6 -1 -17 5 -25 6 -8 8 -20 4 -26 -5 -9 -2 -10 9 -6
12 5 17 1 17 -13 0 -10 5 -22 12 -26 8 -5 9 2 5 26 -4 18 -7 36 -7 40 0 4 -9
10 -21 13 -12 3 -18 10 -14 16 3 6 4 11 1 11 -3 0 -8 -5 -11 -10z"/>
<path d="M4210 5536 c0 -2 8 -10 18 -17 15 -13 16 -12 3 4 -13 16 -21 21 -21
13z"/>
<path d="M5242 5528 c2 -6 10 -14 16 -16 7 -2 10 2 6 12 -7 18 -28 22 -22 4z"/>
<path d="M4180 5436 c43 -61 76 -84 93 -67 9 10 9 11 -4 6 -10 -4 -19 2 -26
18 -6 13 -31 39 -54 58 l-44 34 35 -49z"/>
<path d="M5260 5456 c0 -8 4 -17 9 -20 5 -4 7 3 4 14 -6 23 -13 26 -13 6z"/>
<path d="M5306 5430 c3 -25 9 -49 14 -53 14 -15 9 61 -6 80 -11 16 -12 12 -8
-27z"/>
<path d="M5191 5444 c0 -11 3 -14 6 -6 3 7 2 16 -1 19 -3 4 -6 -2 -5 -13z"/>
<path d="M5227 5443 c3 -7 9 -10 14 -7 14 8 11 21 -5 21 -8 0 -12 -6 -9 -14z"/>
<path d="M5270 5410 c0 -5 5 -10 11 -10 5 0 7 5 4 10 -3 6 -8 10 -11 10 -2 0
-4 -4 -4 -10z"/>
<path d="M5241 5334 c0 -11 3 -14 6 -6 3 7 2 16 -1 19 -3 4 -6 -2 -5 -13z"/>
<path d="M5240 5301 c0 -6 4 -13 10 -16 6 -3 7 1 4 9 -7 18 -14 21 -14 7z"/>
<path d="M5280 5171 c0 -5 -3 -17 -6 -25 -5 -12 -2 -15 10 -10 17 7 22 44 6
44 -5 0 -10 -4 -10 -9z"/>
<path d="M5311 5134 c0 -11 3 -14 6 -6 3 7 2 16 -1 19 -3 4 -6 -2 -5 -13z"/>
<path d="M5022 4865 c0 -16 2 -22 5 -12 2 9 2 23 0 30 -3 6 -5 -1 -5 -18z"/>
<path d="M4786 4690 c-9 -28 -13 -70 -7 -70 14 0 30 53 21 69 -7 14 -9 14 -14
1z"/>
<path d="M4590 4455 c-19 -35 -9 -37 18 -4 17 21 19 29 9 29 -7 0 -20 -11 -27
-25z"/>
<path d="M4600 4401 c0 -5 7 -14 15 -21 8 -7 16 -22 16 -34 1 -14 3 -16 6 -5
5 20 -13 69 -27 69 -5 0 -10 -4 -10 -9z"/>
<path d="M4564 4325 c-6 -14 11 -45 25 -45 16 1 33 19 26 29 -5 9 -11 9 -23
-1 -13 -11 -15 -10 -10 10 7 24 -9 31 -18 7z"/>
<path d="M5100 6080 c-9 -6 -10 -10 -3 -10 6 0 15 5 18 10 8 12 4 12 -15 0z"/>
<path d="M5520 5910 c0 -5 5 -10 10 -10 6 0 10 5 10 10 0 6 -4 10 -10 10 -5 0
-10 -4 -10 -10z"/>
<path d="M5570 5843 c0 -5 9 -19 19 -32 13 -17 20 -20 26 -12 4 7 -1 21 -11
32 -17 19 -34 25 -34 12z"/>
<path d="M6160 5320 c0 -5 5 -10 10 -10 6 0 10 5 10 10 0 6 -4 10 -10 10 -5 0
-10 -4 -10 -10z"/>
<path d="M4614 2451 c3 -5 21 -14 38 -20 l33 -11 -25 20 c-25 20 -56 27 -46
11z"/>
</g>
</svg>
